<?xml version="1.0" standalone="no"?>
<!DOCTYPE svg PUBLIC "-//W3C//DTD SVG 1.1//EN" "http://www.w3.org/Graphics/SVG/1.1/DTD/svg11.dtd" >
<!--
2013-9-30: Created.
-->
<svg>
<metadata>
Created by iconfont
</metadata>
<defs>

<font id="iconfont" horiz-adv-x="1024" >
  <font-face
    font-family="iconfont"
    font-weight="500"
    font-stretch="normal"
    units-per-em="1024"
    ascent="896"
    descent="-128"
  />
    <missing-glyph />
    
    <glyph glyph-name="icon_add" unicode="&#60303;" d="M542.308283 415.999808H926.290631c17.672498 0 31.998785-14.326287 31.998785-31.998785s-14.326287-31.998785-31.998785-31.998785H542.308283v-383.981324c0-17.672498-14.326287-31.998785-31.998785-31.998785s-31.998785 14.326287-31.998785 31.998785V352.003262H94.330412c-17.672498 0-31.998785 14.326287-31.998785 31.998785s14.326287 31.998785 31.998785 31.998784h383.981325V799.981133c0 17.672498 14.326287 31.998785 31.998784 31.998785s31.998785-14.326287 31.998785-31.998785v-383.981325z"  horiz-adv-x="1024" />

    
    <glyph glyph-name="icon_calendar" unicode="&#60305;" d="M767.987209 352.001215h-63.996547c-17.672498 0-31.998785-14.326287-31.998784-31.998785s14.326287-31.998785 31.998784-31.998784h63.996547c17.672498 0 31.998785 14.326287 31.998784 31.998784s-14.326287 31.998785-31.998784 31.998785zM256.011768 352.001215c-17.672498 0-31.998785-14.326287-31.998785-31.998785s14.326287-31.998785 31.998785-31.998784h287.985994c17.672498 0 31.998785 14.326287 31.998784 31.998784s-14.326287 31.998785-31.998784 31.998785H256.011768zM767.987209 511.994116H256.011768c-17.672498 0-31.998785-14.326287-31.998785-31.998785s14.326287-31.998785 31.998785-31.998785h511.975441c17.672498 0 31.998785 14.326287 31.998784 31.998785s-14.326287 31.998785-31.998784 31.998785zM863.98254 767.981325h-63.996547c-17.672498 0-31.998785-14.326287-31.998784-31.998785s14.326287-31.998785 31.998784-31.998785h63.996547c17.672498 0 31.998785-14.326287 31.998785-31.998785v-639.969556c0-17.672498-14.326287-31.998785-31.998785-31.998785H160.016437c-17.672498 0-31.998785 14.326287-31.998785 31.998785V671.985993c0 17.672498 14.326287 31.998785 31.998785 31.998785h63.996546c17.672498 0 31.998785 14.326287 31.998785 31.998785s-14.326287 31.998785-31.998785 31.998785h-63.996546c-53.016471 0-95.995331-42.97886-95.995331-95.995331v-639.969557c0-53.016471 42.97886-95.995331 95.995331-95.995331h703.966103c53.016471 0 95.995331 42.97886 95.995331 95.995331V671.985993c0 53.017494-42.977837 95.995331-95.995331 95.995332zM320.009338 639.988232c17.672498 0 31.998785 14.326287 31.998784 31.998785V799.980109c0 17.672498-14.326287 31.998785-31.998784 31.998785s-31.998785-14.326287-31.998785-31.998785v-127.994116c0-17.671475 14.326287-31.997762 31.998785-31.997761zM416.004669 703.984778h191.990662c17.672498 0 31.998785 14.326287 31.998785 31.998785s-14.326287 31.998785-31.998785 31.998785H416.004669c-17.672498 0-31.998785-14.326287-31.998785-31.998785s14.326287-31.998785 31.998785-31.998785zM703.990662 639.988232c17.672498 0 31.998785 14.326287 31.998785 31.998785V799.980109c0 17.672498-14.326287 31.998785-31.998785 31.998785s-31.998785-14.326287-31.998784-31.998785v-127.994116c0-17.671475 14.326287-31.997762 31.998784-31.997761z"  horiz-adv-x="1024" />

    
    <glyph glyph-name="icon_delete" unicode="&#60307;" d="M800.162002 579.340967c1.850138 17.575284 17.596773 30.322609 35.172058 28.473495 17.575284-1.850138 30.322609-17.596773 28.473494-35.172058l-57.966202-550.673811c-5.143137-48.856731-46.341445-85.946464-95.467306-85.946464H313.625954c-49.126884 0-90.325192 37.089733-95.468329 85.946464L160.192446 572.641381c-1.850138 17.575284 10.898211 33.32192 28.472471 35.172057 17.575284 1.850138 33.32192-10.898211 35.172058-28.473494l57.965179-550.672788c1.714038-16.285918 15.446807-28.64848 31.822776-28.648481h396.74707c16.375969 0 30.108738 12.363585 31.822776 28.648481l57.967226 550.673811z m-192.176904-99.345636c17.672498 0 31.998785-14.326287 31.998785-31.998785v-223.989447c0-17.672498-14.326287-31.998785-31.998785-31.998785s-31.998785 14.326287-31.998785 31.998785V447.99757c0 17.671475 14.326287 31.997762 31.998785 31.997761z m-191.990662 0c17.672498 0 31.998785-14.326287 31.998785-31.998785v-223.989447c0-17.672498-14.326287-31.998785-31.998785-31.998785s-31.998785 14.326287-31.998785 31.998785V447.99757c0 17.671475 14.326287 31.997762 31.998785 31.997761z m-31.998785 223.989447h255.987209v47.998178c0 8.836249-7.163143 15.999392-15.999393 15.999392H399.995043c-8.836249 0-15.999392-7.163143-15.999392-15.999392v-47.998178z m-63.996546 0V767.981325c0 35.344996 28.652574 63.996546 63.997569 63.996546h255.987209c35.343973 0 63.996546-28.652574 63.996546-63.996546v-63.996547h223.99968c17.672498 0 31.998785-14.326287 31.998785-31.998785s-14.326287-31.998785-31.998785-31.998784H96.019891c-17.672498 0-31.998785 14.326287-31.998785 31.998784s14.326287 31.998785 31.998785 31.998785h223.979214z"  horiz-adv-x="1024" />

    
    <glyph glyph-name="icon_file" unicode="&#60309;" d="M224.014007 192.009338h383.981324c17.672498 0 31.998785-14.326287 31.998785-31.998785s-14.326287-31.998785-31.998785-31.998785H224.014007c-17.672498 0-31.998785 14.326287-31.998785 31.998785s14.326287 31.998785 31.998785 31.998785z m0 159.991877h191.990662c17.672498 0 31.998785-14.326287 31.998785-31.998785s-14.326287-31.998785-31.998785-31.998784H224.014007c-17.672498 0-31.998785 14.326287-31.998785 31.998784s14.326287 31.998785 31.998785 31.998785z m-95.995332 383.982348c-17.672498 0-31.998785-14.326287-31.998784-31.998785v-639.969556c0-17.672498 14.326287-31.998785 31.998784-31.998785h767.96265c17.672498 0 31.998785 14.326287 31.998784 31.998785V607.989447c0 17.672498-14.326287 31.998785-31.998784 31.998785H575.996546a159.988808 159.988808 0 0 0-95.995331 31.998785l-76.79606 57.596789a32.002878 32.002878 0 0 1-19.199271 6.399757H128.018675z m0 63.996546h255.987209a95.992261 95.992261 0 0 0 57.596789-19.19927l76.796061-57.59679a95.992261 95.992261 0 0 1 57.596789-19.199271H895.980301c53.016471 0 95.995331-42.97886 95.995332-95.995331v-543.974225c0-53.016471-42.97886-95.995331-95.995332-95.995331H128.018675c-53.016471 0-95.995331 42.97886-95.995331 95.995331V703.984778c0 53.016471 42.977837 95.995331 95.995331 95.995331z"  horiz-adv-x="1024" />

    
    <glyph glyph-name="icon_GPS" unicode="&#60310;" d="M512-47.979502c223.989447 224.729298 335.984171 399.577534 335.984171 524.546757 0 187.452299-150.424988 339.412246-335.984171 339.412247S176.015829 664.019555 176.015829 476.567255c0-124.9682 111.994724-299.81746 335.984171-524.546757z m45.327348-45.177945c-25.009603-25.092491-65.645093-25.092491-90.654696 0-235.249909 236.027621-354.653369 422.443311-354.653369 569.724702C112.019283 699.219241 290.950512 879.976048 512 879.976048s399.980717-180.756807 399.980717-403.408793c0-147.281391-119.40346-333.697081-354.653369-569.724702z m-45.327348 445.158662c70.688969 0 127.994116 57.305147 127.994116 127.994116s-57.305147 127.994116-127.994116 127.994116-127.994116-57.305147-127.994116-127.994116 57.305147-127.994116 127.994116-127.994116z m0-63.996546c-106.033965 0-191.990662 85.956697-191.990662 191.990662s85.956697 191.990662 191.990662 191.990662 191.990662-85.956697 191.990662-191.990662-85.957721-191.990662-191.990662-191.990662z"  horiz-adv-x="1024" />

    
    <glyph glyph-name="icon_im_more" unicode="&#60311;" d="M512-91.897757c262.831081 0 475.897757 213.066677 475.897757 475.897757S774.831081 859.897757 512 859.897757 36.102243 646.831081 36.102243 384 249.168919-91.897757 512-91.897757z m0-31.726586c-280.353153 0-507.624343 227.27119-507.624343 507.624343S231.646847 891.624343 512 891.624343s507.624343-227.27119 507.624343-507.624343-227.27119-507.624343-507.624343-507.624343z m-31.726585 539.350928V638.021437c0 17.406438 14.081717 31.516808 31.726585 31.516808 17.522072 0 31.726585-14.116509 31.726585-31.516808v-222.294852h222.294852c17.406438 0 31.516808-14.081717 31.516808-31.726585 0-17.522072-14.116509-31.726585-31.516808-31.726585H543.726585v-222.294852c0-17.406438-14.081717-31.516808-31.726585-31.516808-17.522072 0-31.726585 14.116509-31.726585 31.516808V352.273415H257.978563c-17.406438 0-31.516808 14.081717-31.516808 31.726585 0 17.522072 14.116509 31.726585 31.516808 31.726585h222.294852z"  horiz-adv-x="1024" />

    
    <glyph glyph-name="icon_likegood" unicode="&#60312;" d="M116.072599 383.060605l22.587437-383.981325c0.497327-8.456602 7.500834-15.059997 15.971764-15.059997h36.5658c8.836249 0 15.999392 7.163143 15.999392 15.999392V384c0 8.836249-7.163143 15.999392-15.999392 15.999392h-59.153238c-8.836249 0-15.999392-7.163143-15.999392-15.999392 0-0.313132 0.00921-0.626263 0.027629-0.939395z m-34.931581 80.935334h158.054759c17.672498 0 31.998785-14.326287 31.998785-31.998785v-479.976656c0-17.672498-14.326287-31.998785-31.998785-31.998785H109.374036c-16.942881 0-30.948873 13.205766-31.943526 30.118972l-28.233018 479.978702c-1.037632 17.641799 12.422937 32.784684 30.064736 33.822317a32.846082 32.846082 0 0 0 1.87879 0.054235z m302.047244-479.641012h404.122038a15.998369 15.998369 0 0 1 15.348569 11.484566l106.902752 363.468128a31.984459 31.984459 0 0 1 1.300622 9.028631c0 17.672498-14.326287 31.998785-31.998784 31.998785H687.970804c-45.24446 0-76.202543 45.669132-59.446927 87.697341 24.101931 60.454884 35.925211 116.770494 35.925211 169.098279 0 73.907267-27.838022 118.643144-87.703482 125.826754a490.128877 490.128877 0 0 1-2.293229-12.43931c0.829901 4.808516-3.601015-21.327748-4.946662-28.684296-2.301416-12.577456-4.652973-23.73968-7.455809-34.876322-7.320733-29.093619-17.213034-55.692417-31.254841-81.35489-35.666314-65.179488-90.317005-128.782062-163.605172-191.322443v-433.924807c-0.001023-8.837272 7.16212-16.000416 15.998369-16.000416zM703.046151 506.089639c-4.442172-13.771655-9.467629-27.690666-15.075347-41.757033H878.863459c53.017494 0 95.995331-42.97886 95.995331-95.995331 0-9.168824-1.313925-18.290575-3.900843-27.086915L860.677261-33.702334c-8.010441-27.236318-33.006741-45.939285-61.396325-45.939285H367.18887c-35.344996 0-63.996546 28.652574-63.996546 63.996546V464.332606c79.287811 63.996546 136.441509 127.994116 171.46007 191.990663 52.528354 95.995331 20.530592 191.655018 84.228333 191.655018 128.292921 0 169.564907-99.571786 169.564907-190.84763 0-41.355897-6.231935-84.289732-18.695804-128.800481l-6.703679-22.240537z"  horiz-adv-x="1024" />

    
    <glyph glyph-name="icon_left" unicode="&#60313;" d="M376.24206 384l384.647497-384.647497c12.496615-12.496615 12.496615-32.756031 0-45.252647l-22.626323-22.626323c-12.496615-12.496615-32.756031-12.496615-45.252647 0L263.110443 361.373677c-12.496615 12.496615-12.496615 32.756031 0 45.252646L693.010587 836.526467c12.496615 12.495592 32.756031 12.495592 45.252647 0l22.626323-22.626323c12.496615-12.495592 12.496615-32.756031 0-45.252647L376.24206 384z"  horiz-adv-x="1024" />

    
    <glyph glyph-name="icon_next_arrow" unicode="&#60314;" d="M384.561539-9.148102c-12.365632-12.647041-32.082696-12.551874-44.161802 0.342808l-50.324152 53.724599c-12.023848 12.836353-11.748578 33.491789 0.654916 46.177715l266.968307 273.051863c12.385075 12.667507 12.005428 32.915667-0.891299 45.26595L279.229562 675.252387c-12.877285 12.332886-13.356193 32.516578-1.109264 45.040822l55.647392 56.909128c12.264325 12.542664 32.388664 12.401448 44.645826-0.008187l367.036397-371.605459c12.392238-12.546757 12.409634-32.975019 0.048095-45.616944L384.561539-9.148102z"  horiz-adv-x="1024" />

    
    <glyph glyph-name="icon_refresh" unicode="&#60316;" d="M844.617493 575.990662a384.730385 384.730385 0 0 1-30.014594 44.413536c-72.372308 92.496647-182.910866 147.577127-302.602899 147.577127-212.066907 0-383.981325-171.914418-383.981325-383.981325s171.914418-383.981325 383.981325-383.981325c156.391886 0 295.340495 94.355995 354.539782 236.242516 6.804986 16.309454 25.542746 24.01495 41.8522 17.209964 16.309454-6.804986 24.01495-25.542746 17.209964-41.852201-69.059865-165.518754-231.1618-275.596825-413.601946-275.596825-247.411903 0-447.978894 200.566992-447.978894 447.978894S264.588097 831.978894 512 831.978894c139.588175 0 268.630157-64.300468 353.005846-172.137498a448.801632 448.801632 0 0 0 30.975479-44.975331V799.980109c0 17.672498 14.326287 31.998785 31.998784 31.998785s31.998785-14.326287 31.998785-31.998785v-255.987208c0-8.836249-3.581572-16.835434-9.372461-22.626324-5.79089-5.79089-13.790074-9.372461-22.626324-9.372461H671.991878c-17.672498 0-31.998785 14.326287-31.998785 31.998785s14.326287 31.998785 31.998785 31.998785h172.625615z"  horiz-adv-x="1024" />

    
    <glyph glyph-name="icon_approval_fill" unicode="&#60324;" d="M863.98254 288.004669H703.990662c-53.017494 0-95.995331 42.97886-95.995331 95.995331 0 31.975249 15.632025 60.299341 39.673581 77.746712 53.680597 40.919968 88.319511 105.535615 88.319512 178.24152 0 123.706463-100.284007 223.989447-223.989447 223.989447s-223.989447-100.281961-223.989447-223.989447c0-72.705905 34.638915-137.321552 88.319511-178.24152 24.041556-17.446347 39.673581-45.771463 39.673581-77.746712 0-53.016471-42.97886-95.995331-95.995331-95.995331H160.016437c-35.341926 0-63.996546-28.650527-63.996546-63.996547v-159.991877h831.960218V224.008122c0 35.346019-28.655643 63.996546-63.997569 63.996547zM96.019891 0.018675c0-35.343973 28.65462-63.996546 63.996546-63.996546h703.966103c35.341926 0 63.996546 28.652574 63.996546 63.996546v31.998785H96.019891v-31.998785z"  horiz-adv-x="1024" />

    
    <glyph glyph-name="aixin" unicode="&#59563;" d="M667.786667 778.666667C832.864 778.666667 938.666667 646.293333 938.666667 468.138667c0-138.250667-125.098667-290.506667-371.573334-461.589334a96.768 96.768 0 0 0-110.186666 0C210.432 177.632 85.333333 329.888 85.333333 468.138667 85.333333 646.293333 191.136 778.666667 356.213333 778.666667c59.616 0 100.053333-20.832 155.786667-68.096C567.744 757.824 608.170667 778.666667 667.786667 778.666667z m0-63.146667c-41.44 0-70.261333-15.189333-116.96-55.04-2.165333-1.845333-14.4-12.373333-17.941334-15.381333a32.32 32.32 0 0 0-41.770666 0c-3.541333 3.018667-15.776 13.536-17.941334 15.381333-46.698667 39.850667-75.52 55.04-116.96 55.04C230.186667 715.52 149.333333 614.741333 149.333333 469.301333 149.333333 358.4 262.858667 220.757333 493.632 61.173333a32.352 32.352 0 0 1 36.736 0C761.141333 220.746667 874.666667 358.4 874.666667 469.301333c0 145.44-80.853333 246.218667-206.88 246.218667z"  horiz-adv-x="1024" />

    
    <glyph glyph-name="chuangzuo" unicode="&#59565;" d="M896 32a32 32 0 0 0 0-64H128a32 32 0 0 0 0 64z m-60.16 733.621333l15.093333-15.093333c45.866667-45.834667 45.866667-120.16 0-166.005333L418.794667 152.661333a160.192 160.192 0 0 0-78.122667-42.986666l-152.245333-34.197334c-23.84-5.365333-44.661333 16.853333-37.749334 40.288l43.338667 146.88a160.042667 160.042667 0 0 0 40.373333 67.925334l435.328 435.050666c45.866667 45.834667 120.245333 45.834667 166.112 0zM636.32 641.696L279.68 285.290667a96.021333 96.021333 0 0 1-24.213333-40.746667l-27.946667-94.656 99.093333 22.261333a96.117333 96.117333 0 0 1 46.869334 25.781334L726.933333 551.157333l-90.602666 90.538667z m78.698667 78.656l-33.397334-33.386667 90.602667-90.538666 33.386667 33.376a53.333333 53.333333 0 0 1 0 75.456l-15.093334 15.093333a53.408 53.408 0 0 1-75.498666 0z"  horiz-adv-x="1024" />

    
    <glyph glyph-name="taolunqu" unicode="&#59577;" d="M518.965333 48.501333c-21.290667-3.84-43.232-5.834667-65.632-5.834666a366.4 366.4 0 0 0-189.002666 52.181333 2118.4 2118.4 0 0 1-15.306667 8.981333l-86.944-23.712c-23.893333-6.506667-45.813333 15.402667-39.296 39.296l23.68 86.848c-8.821333 15.008-14.656 25.152-17.632 30.709334A366.485333 366.485333 0 0 0 85.333333 410.666667C85.333333 613.909333 250.090667 778.666667 453.333333 778.666667c185.514667 0 338.965333-137.269333 364.32-315.776A255.850667 255.850667 0 0 0 938.666667 245.333333c0-42.709333-10.496-83.978667-30.261334-120.842666-1.792-3.338667-4.992-8.928-9.696-16.96l14.613334-53.557334c6.506667-23.893333-15.402667-45.813333-39.296-39.296l-53.642667 14.634667-6.229333-3.669333A254.933333 254.933333 0 0 0 682.666667-10.666667a255.061333 255.061333 0 0 0-163.701334 59.168z m79.861334 24.042667A191.36 191.36 0 0 1 682.666667 53.333333a190.933333 190.933333 0 0 1 98.570666 27.2c2.208 1.322667 8.288 4.874667 18.517334 10.837334a32 32 0 0 0 24.522666 3.210666l12.565334-3.424-3.424 12.565334a32 32 0 0 0 3.338666 24.725333 996.672 996.672 0 0 1 15.242667 26.293333A190.997333 190.997333 0 0 1 874.666667 245.333333a191.68 191.68 0 0 1-54.634667 134.186667C808.458667 241.429333 720.650667 125.034667 598.826667 72.533333z m-387.050667 129.92l-12.512-45.866667 45.866667 12.512a32 32 0 0 0 24.522666-3.221333c15.253333-8.885333 24.373333-14.218667 27.594667-16.149333A302.4 302.4 0 0 1 453.333333 106.666667C621.226667 106.666667 757.333333 242.773333 757.333333 410.666667S621.226667 714.666667 453.333333 714.666667 149.333333 578.56 149.333333 410.666667c0-50.794667 12.448-99.712 35.904-143.456 3.104-5.792 10.933333-19.306667 23.2-40.021334a32 32 0 0 0 3.338667-24.725333zM586.666667 522.666667a32 32 0 0 0 0-64H320a32 32 0 0 0 0 64h266.666667zM458.666667 362.666667a32 32 0 0 0 0-64H320a32 32 0 0 0 0 64h138.666667z"  horiz-adv-x="1024" />

    
    <glyph glyph-name="xiazai" unicode="&#59580;" d="M507.136 381.056c3.072 4.362667 7.210667 7.925333 12.032 10.314667a37.365333 37.365333 0 0 0 46.634667-6.144l97.418666-102.794667a32 32 0 0 0-46.442666-44.021333L565.333333 292.682667V42.666667a32 32 0 1 0-64 0V287.242667l-52.618666-50.016a32 32 0 0 0-44.096 46.4l102.517333 97.429333zM512 757.333333c123.018667 0 228.213333-85.696 259.424-204.469333C864.298667 551.264 938.666667 473.248 938.666667 377.781333 938.666667 281.312 862.752 202.666667 768.533333 202.666667a32 32 0 0 0 0 64C826.890667 266.666667 874.666667 316.16 874.666667 377.781333c0 61.610667-47.776 111.104-106.133334 111.104-5.856 0-11.626667-0.490667-17.301333-1.461333a32 32 0 0 0-37.024 26.666667C698.346667 616.96 612.714667 693.333333 512 693.333333c-73.834667 0-140.928-41.066667-177.376-106.613333a32 32 0 0 0-30.122667-16.373333c-3.168 0.213333-6.357333 0.32-9.568 0.32C214.784 570.666667 149.333333 502.858667 149.333333 418.666667S214.784 266.666667 294.933333 266.666667a32 32 0 1 0 0-64C178.912 202.666667 85.333333 299.626667 85.333333 418.666667c0 116.938667 90.293333 212.554667 203.456 215.904C338.090667 710.304 421.013333 757.333333 512 757.333333z"  horiz-adv-x="1024" />

    
    <glyph glyph-name="jiesuo" unicode="&#58918;" d="M569.8 212.1H432.4c-86.8 0-157.5 70.7-157.5 157.5V628c0 86.8 70.7 157.5 157.5 157.5h137.4c86.8 0 157.5-70.7 157.5-157.5v-258.4c0-86.8-70.7-157.5-157.5-157.5zM432.4 710.5c-21.9 0-42.6-8.6-58.2-24.3s-24.3-36.3-24.3-58.2v-258.4c0-21.9 8.6-42.6 24.3-58.2s36.3-24.3 58.2-24.3h137.4c21.9 0 42.6 8.6 58.2 24.3s24.3 36.3 24.3 58.2V628c0 21.9-8.6 42.6-24.3 58.2s-36.3 24.3-58.2 24.3H432.4zM716.3-9.1H285.8c-73.9 0-133.8 59.9-133.8 133.8V429.6h698.1v-304.9c0-73.9-59.9-133.8-133.8-133.8z"  horiz-adv-x="1024" />

    
    <glyph glyph-name="zhongzhimima" unicode="&#58892;" d="M511.414857 896a274.870857 274.870857 0 0 0 274.870857-274.870857v-110.226286h100.571429a73.142857 73.142857 0 0 0 73.142857-73.142857V-54.857143a73.142857 73.142857 0 0 0-73.142857-73.142857H137.142857a73.142857 73.142857 0 0 0-73.142857 73.142857V437.686857a73.142857 73.142857 0 0 0 73.142857 73.142857l99.401143 0.073143V621.129143A274.870857 274.870857 0 0 0 511.414857 896zM877.714286 428.617143H146.285714v-474.331429h731.428572V428.544zM601.746286 347.428571l8.557714-5.485714a36.571429 36.571429 0 0 0 30.208 16.896h0.658286a36.571429 36.571429 0 0 0 36.571428-35.913143v-69.193143a36.571429 36.571429 0 0 0-35.986285-36.571428h-69.193143a36.571429 36.571429 0 0 0-14.043429 70.363428l6.582857-3.510857a106.276571 106.276571 0 1 1 38.034286-146.651428l0.877714 1.462857a36.571429 36.571429 0 0 0 63.341715-36.571429A179.419429 179.419429 0 1 0 601.746286 347.428571zM511.414857 813.641143A192.585143 192.585143 0 0 1 318.902857 621.129143v-109.421714h385.170286V621.129143a192.585143 192.585143 0 0 1-192.585143 192.585143z"  horiz-adv-x="1024" />

    
    <glyph glyph-name="kehuzhongxin" unicode="&#58895;" d="M512 352a256 256 0 1 0 0 512 256 256 0 0 0 0-512zM512 448a160 160 0 1 1 0 320 160 160 0 0 1 0-320zM256 288h512a192 192 0 0 0 192-192v-64a128 128 0 0 0-128-128H192a128 128 0 0 0-128 128v64a192 192 0 0 0 192 192zM256 192a96 96 0 0 1-96-96v-64a32 32 0 0 1 32-32h640a32 32 0 0 1 32 32v64A96 96 0 0 1 768 192H256z"  horiz-adv-x="1024" />

    
    <glyph glyph-name="cebianshouqi" unicode="&#58898;" d="M1028.608-16.018286c28.379429 0 51.419429-21.504 51.419429-47.981714 0-26.477714-23.04-47.981714-51.492572-47.981714H68.608c-28.452571 0-51.492571 21.504-51.492571 47.981714 0 26.477714 23.04 47.981714 51.492571 47.981714zM192.804571 579.510857c18.797714 18.724571 50.249143 17.627429 70.363429-2.413714 20.041143-20.114286 21.138286-51.565714 2.413714-70.290286L144.384 385.462857 274.285714 255.707429c20.114286-20.114286 21.211429-51.565714 2.413715-70.363429-18.724571-18.724571-50.176-17.627429-70.217143 2.486857L3.730286 390.436571z m835.657143-147.529143c28.452571 0 51.492571-21.504 51.492572-47.981714 0-26.477714-23.04-47.981714-51.492572-47.981714H445.805714c-28.452571 0-51.419429 21.504-51.419428 47.981714 0 26.477714 22.966857 47.981714 51.419428 47.981714z m0 448c28.452571 0 51.492571-21.504 51.492572-47.981714 0-26.477714-23.04-47.981714-51.492572-47.981714H68.608c-28.452571 0-51.492571 21.504-51.492571 47.981714C17.115429 858.477714 40.228571 879.981714 68.608 879.981714z"  horiz-adv-x="1097" />

    
    <glyph glyph-name="cebianshouqi1" unicode="&#58899;" d="M68.608-16.018286c-28.452571 0-51.492571-21.504-51.492571-47.981714 0-26.477714 23.04-47.981714 51.492571-47.981714h959.926857c28.452571 0 51.492571 21.504 51.492572 47.981714 0 26.477714-23.04 47.981714-51.492572 47.981714z m835.657143 595.529143c-18.797714 18.724571-50.249143 17.627429-70.363429-2.413714-20.041143-20.114286-21.138286-51.565714-2.413714-70.290286l121.270857-121.270857-129.901714-129.828571c-20.114286-20.114286-21.211429-51.565714-2.413714-70.363429 18.724571-18.724571 50.176-17.627429 70.217142 2.486857l202.678858 202.605714zM68.608 431.981714c-28.452571 0-51.492571-21.504-51.492571-47.981714 0-26.477714 23.04-47.981714 51.492571-47.981714h582.802286c28.452571 0 51.419429 21.504 51.419428 47.981714 0 26.477714-22.966857 47.981714-51.419428 47.981714z m0 448C40.082286 879.981714 17.115429 858.477714 17.115429 832c0-26.477714 23.04-47.981714 51.492571-47.981714h959.926857c28.452571 0 51.492571 21.504 51.492572 47.981714 0 26.477714-23.04 47.981714-51.492572 47.981714z"  horiz-adv-x="1097" />

    
    <glyph glyph-name="renwu-" unicode="&#59877;" d="M142.165333 523.434667S113.834667 896 517.802667 896c396.629333 0 364.032-382.634667 364.032-382.634667zM148.650667 369.834667a288.768 288.768 0 0 1 98.133333-181.589334c56.490667-48.981333 285.354667-20.48 285.354667-20.48s208.213333-34.133333 258.730666 10.922667a262.144 262.144 0 0 1 84.309334 201.045333zM598.186667 213.333333l-85.333334-1.024-85.333333 1.024s17.066667-79.36-37.376-100.522666c0 0 6.997333-74.410667 121.685333-74.410667s122.709333 74.410667 122.709334 74.410667C580.266667 133.461333 598.186667 213.333333 598.186667 213.333333zM518.485333 137.898667a182.784 182.784 0 0 1 80.725334 17.066666 139.946667 139.946667 0 0 0-1.024 58.368l-85.333334-1.024-85.333333 1.024a136.533333 136.533333 0 0 0-1.536-59.733333 197.461333 197.461333 0 0 1 92.501333-15.701333zM98.986667 456.021333a112.469333 108.885333 0 1 1 224.938666 0 112.469333 108.885333 0 1 1-224.938666 0ZM708.096 456.021333a109.909333 108.885333 0 1 1 219.818667 0 109.909333 108.885333 0 1 1-219.818667 0ZM153.429333 456.021333a46.933333 45.397333 0 1 1 93.866667 0 46.933333 45.397333 0 1 1-93.866667 0ZM779.605333 456.021333a46.933333 45.397333 0 1 1 93.866667 0 46.933333 45.397333 0 1 1-93.866667 0ZM227.328 621.397333s-85.333333-170.666667-21.162667-309.418666c86.528-189.269333 529.066667-190.293333 617.301334 5.802666 61.269333 136.533333-32.256 305.493333-32.256 305.493334L512 682.666667zM643.242667 452.266667l20.821333 18.944a34.133333 34.133333 0 0 1-28.16 15.36 36.693333 36.693333 0 1 1 34.133333-40.106667zM398.677333 452.266667l20.821334 18.944a34.133333 34.133333 0 0 1-28.16 15.36 36.693333 36.693333 0 1 1 34.133333-40.106667zM487.936 365.738667a25.429333 15.36 0 1 1 50.858667 0 25.429333 15.36 0 1 1-50.858667 0ZM486.570667 283.306667a30.890667 26.794667 90 1 1 53.589333 0 30.890667 26.794667 90 1 1-53.589333 0ZM734.890667 349.866667a8.533333 8.533333 0 0 0-7.509334 4.608l-8.533333 17.066666a8.533333 8.533333 0 1 0 15.189333 7.850667l8.533334-17.066667a8.533333 8.533333 0 0 0-3.754667-11.434666 8.362667 8.362667 0 0 0-3.925333-1.024zM779.776 349.866667a8.533333 8.533333 0 0 0-7.509333 4.608l-8.533334 17.066666a8.533333 8.533333 0 1 0 15.189334 7.850667l8.533333-17.066667a8.533333 8.533333 0 0 0-3.754667-11.434666 8.362667 8.362667 0 0 0-3.925333-1.024zM292.010667 349.866667a8.362667 8.362667 0 0 0-3.925334 1.024 8.533333 8.533333 0 0 0-3.754666 11.434666l8.533333 17.066667a8.533333 8.533333 0 1 0 15.189333-7.850667l-8.533333-17.066666a8.533333 8.533333 0 0 0-7.509333-4.608zM247.125333 349.866667a8.362667 8.362667 0 0 0-3.925333 1.024 8.533333 8.533333 0 0 0-3.754667 11.434666l8.533334 17.066667a8.533333 8.533333 0 1 0 15.189333-7.850667l-8.533333-17.066666a8.533333 8.533333 0 0 0-7.509334-4.608zM779.264-42.666667l-25.088 69.632A132.778667 132.778667 0 0 1 631.466667 114.688c-4.437333-38.912-55.808-69.802667-119.466667-69.802667s-114.346667 30.72-119.466667 69.802667a132.778667 132.778667 0 0 1-119.466666-87.552L247.637333-42.666667a32.768 32.768 0 0 1 13.653334-39.082666c30.72-18.773333 101.034667-46.250667 252.074666-46.250667s221.866667 27.477333 252.074667 46.592a32.768 32.768 0 0 1 13.824 38.741333zM498.346667 268.629333a15.018667 11.946667 0 1 1 30.037333 0 15.018667 11.946667 0 1 1-30.037333 0ZM204.8 564.736s186.88-1.536 303.445333 99.328c0 0 99.157333-98.816 311.466667-99.328 0 0 34.133333 174.592-308.736 174.592S204.8 564.736 204.8 564.736zM786.773333 166.4m-42.666666 0a42.666667 42.666667 0 1 1 85.333333 0 42.666667 42.666667 0 1 1-85.333333 0ZM833.706667 128m-36.181334 0a36.181333 36.181333 0 1 1 72.362667 0 36.181333 36.181333 0 1 1-72.362667 0ZM840.874667 111.957333l39.424-73.557333 52.394666 70.314667-81.066666 17.066666-10.752-13.824zM237.226667 166.4m-42.666667 0a42.666667 42.666667 0 1 1 85.333333 0 42.666667 42.666667 0 1 1-85.333333 0ZM190.293333 128m-36.181333 0a36.181333 36.181333 0 1 1 72.362667 0 36.181333 36.181333 0 1 1-72.362667 0ZM183.125333 111.957333l-39.424-73.557333-52.394666 70.314667 81.066666 17.066666 10.752-13.824zM287.061333 652.117333c0-12.8-24.746667-32.768-38.229333-27.136s-35.84 59.562667-25.429333 67.072 63.488-23.04 63.658666-39.936z"  horiz-adv-x="1024" />

    
    <glyph glyph-name="renwu-1" unicode="&#59878;" d="M155.818667 541.013333S76.288 769.877333 287.061333 858.965333a465.237333 465.237333 0 0 0 388.778667-11.605333s122.368 8.533333 177.493333-63.317333c65.194667-85.333333 12.970667-256 12.970667-256zM597.333333 213.333333l-85.333333-1.024-85.333333 1.024s17.066667-79.36-37.376-100.522666c0 0 6.997333-74.410667 121.685333-74.410667s122.709333 74.410667 122.709333 74.410667C579.413333 133.461333 597.333333 213.333333 597.333333 213.333333zM516.949333 137.898667a182.784 182.784 0 0 1 80.725334 17.066666A139.946667 139.946667 0 0 0 597.333333 213.333333l-85.333333-1.024-85.333333 1.024a136.533333 136.533333 0 0 0-1.536-59.733333 197.461333 197.461333 0 0 1 91.818666-15.701333zM97.621333 456.021333a112.469333 108.885333 0 1 1 224.938667 0 112.469333 108.885333 0 1 1-224.938667 0ZM706.730667 456.021333a109.909333 108.885333 0 1 1 219.818666 0 109.909333 108.885333 0 1 1-219.818666 0ZM152.064 456.021333a46.933333 45.397333 0 1 1 93.866667 0 46.933333 45.397333 0 1 1-93.866667 0ZM778.069333 456.021333a46.933333 45.397333 0 1 1 93.866667 0 46.933333 45.397333 0 1 1-93.866667 0ZM225.962667 621.397333S140.970667 452.266667 204.8 311.978667c86.528-189.269333 529.066667-190.293333 617.301333 5.802666 61.269333 136.533333-32.256 305.493333-32.256 305.493334zM641.877333 452.266667l20.821334 18.944a34.133333 34.133333 0 0 1-28.16 15.36 36.693333 36.693333 0 1 1 34.133333-40.106667zM397.141333 452.266667l20.821334 18.944a34.133333 34.133333 0 0 1-28.16 15.36 36.693333 36.693333 0 1 1 34.133333-40.106667zM486.570667 365.738667a25.429333 15.36 0 1 1 50.858666 0 25.429333 15.36 0 1 1-50.858666 0ZM485.205333 283.306667a30.890667 26.794667 90 1 1 53.589334 0 30.890667 26.794667 90 1 1-53.589334 0ZM733.866667 349.866667a8.533333 8.533333 0 0 0-7.509334 4.608l-8.533333 17.066666a8.533333 8.533333 0 1 0 15.189333 7.850667l8.533334-17.066667a8.533333 8.533333 0 0 0-3.754667-11.434666 8.362667 8.362667 0 0 0-3.925333-1.024zM778.410667 349.866667a8.533333 8.533333 0 0 0-7.509334 4.608l-8.533333 17.066666a8.533333 8.533333 0 1 0 15.189333 7.850667l8.533334-17.066667a8.533333 8.533333 0 0 0-3.754667-11.434666 8.362667 8.362667 0 0 0-3.925333-1.024zM290.133333 349.866667a8.362667 8.362667 0 0 0-3.925333 1.024 8.533333 8.533333 0 0 0-3.754667 11.434666l8.533334 17.066667a8.533333 8.533333 0 1 0 15.189333-7.850667l-8.533333-17.066666A8.533333 8.533333 0 0 0 290.133333 349.866667zM245.589333 349.866667a8.362667 8.362667 0 0 0-3.925333 1.024 8.533333 8.533333 0 0 0-3.754667 11.434666l8.533334 17.066667a8.533333 8.533333 0 1 0 15.189333-7.850667l-8.533333-17.066666a8.533333 8.533333 0 0 0-7.509334-4.608zM777.898667-42.666667l-25.088 69.632A132.778667 132.778667 0 0 1 631.466667 114.688c-4.437333-38.912-55.808-69.802667-119.466667-69.802667s-114.346667 30.72-119.466667 69.802667a132.778667 132.778667 0 0 1-122.026666-87.552L246.101333-42.666667a32.768 32.768 0 0 1 13.653334-39.082666C290.133333-100.522667 360.96-128 512-128s221.866667 27.477333 252.074667 46.592a32.768 32.768 0 0 1 13.824 38.741333zM496.981333 268.629333a15.018667 11.946667 0 1 1 30.037334 0 15.018667 11.946667 0 1 1-30.037334 0ZM196.266667 566.101333a538.282667 538.282667 0 0 1 220.842666-14.506666C559.957333 573.781333 614.4 622.933333 614.4 622.933333a271.872 271.872 0 0 1 130.901333-59.733333 219.818667 219.818667 0 0 1 112.298667 14.848s-25.6 115.882667-349.866667 115.882667-311.466667-127.829333-311.466666-127.829334z"  horiz-adv-x="1024" />

    
    <glyph glyph-name="plant-" unicode="&#59899;" d="M759.807959 629.248044a119.466647 119.466647 0 0 0-78.847987 76.970654c-21.84533 68.266655 17.066664 104.447983 17.066664 104.447983a123.221313 123.221313 0 0 0 77.14132-75.605321 110.933315 110.933315 0 0 0-15.359997-105.813316zM612.181317 408.064081a135.509311 135.509311 0 0 0-106.666649 64.682656c-41.471993 69.290655-8.021332 119.466647-8.021332 119.466647a139.263977 139.263977 0 0 0 104.447982-63.658656 125.439979 125.439979 0 0 0 10.239999-120.490647zM582.997322 238.933443a17.066664 17.066664 0 0 0-17.066664 17.066664 655.701224 655.701224 0 0 0 74.922654 266.581289c67.071989 119.466647 143.871976 166.399972 147.114642 168.277305a17.066664 17.066664 0 1 0 17.066664-29.183995s-72.533321-44.885326-134.826644-155.818641a631.466561 631.466561 0 0 1-70.655989-251.221291 17.066664 17.066664 0 0 0-16.554663-15.701331zM712.191967 600.917383a134.826644 134.826644 0 0 0 117.077313 41.130659c79.530653-11.775998 96.938651-69.119988 96.938651-69.119988s-31.914661-46.421326-114.346648-37.205327a126.975979 126.975979 0 0 0-99.669316 65.194656zM611.49865 424.448079a136.533311 136.533311 0 0 0 107.007982 74.922654c86.698652 10.922665 124.757313-41.471993 124.757313-41.471993A140.799977 140.799977 0 0 0 738.303962 384.000085a146.431976 146.431976 0 0 0-126.805312 40.447994zM776.533289 659.626706a134.826644 134.826644 0 0 0 47.786659 114.517314c61.95199 51.199991 116.223981 25.599996 116.223981 25.599996a138.58131 138.58131 0 0 0-47.103993-112.298648 124.757313 124.757313 0 0 0-116.906647-27.818662zM682.666638 542.378726a127.658645 127.658645 0 0 0-89.941318 75.60532c-28.671995 70.485322 9.727998 112.298648 9.727998 112.298648a131.413311 131.413311 0 0 0 88.063986-74.410654 118.27198 118.27198 0 0 0-7.850666-113.493314zM386.389354 529.920061A140.799977 140.799977 0 0 1 273.066706 588.800051c-83.455986 1.365333-110.933315-51.199991-110.933314-51.199991s25.599996-50.175992 110.933314-54.442658a134.143978 134.143978 0 0 1 113.322648 46.762659zM442.368012 224.085445h-1.024a17.066664 17.066664 0 0 0-15.871998 18.090664 645.802559 645.802559 0 0 1-34.133327 211.626631c-36.522661 115.029314-75.775987 164.693306-76.117321 165.03464A17.066664 17.066664 0 0 0 342.186695 640.000043c1.706666-2.218666 43.519993-54.271991 82.26132-176.298638a665.599889 665.599889 0 0 0 34.133327-224.085296 17.066664 17.066664 0 0 0-16.21333-15.530664zM364.373358 574.63472a113.493314 113.493314 0 0 1 97.45065 58.709324 119.466647 119.466647 0 0 1 4.778666 117.75998 141.311976 141.311976 0 0 1-99.839983-65.023989 108.031982 108.031982 0 0 1-2.389333-111.445315zM441.002678 342.186759a127.999979 127.999979 0 0 1-85.333319 90.453318c-79.871987 28.671995-128.170645-10.239998-128.170645-10.239998a131.754645 131.754645 0 0 1 83.28532-88.575985 150.357308 150.357308 0 0 1 130.218644 8.362665zM341.333362 611.498714a128.341312 128.341312 0 0 1-53.247991 110.762648C221.866715 770.389354 167.082724 743.765359 167.082724 743.765359a131.925311 131.925311 0 0 1 52.394658-108.543982A136.533311 136.533311 0 0 1 341.333362 611.498714zM412.330683 452.266741a136.533311 136.533311 0 0 1 110.591982 48.469325c47.786659 59.39199 20.82133 108.714649 20.82133 108.714648a140.458643 140.458643 0 0 1-108.373316-47.786658A110.591982 110.591982 0 0 1 412.330683 452.266741zM660.479975-127.999829H363.520025a47.786659 47.786659 0 0 0-47.445326 42.325326L273.066706 286.208102h477.866588l-42.837327-371.882605A47.786659 47.786659 0 0 0 660.479975-127.999829zM737.791962 172.032121l6.655999 58.36799H279.552039l6.655999-58.36799h451.583924zM241.152045 291.669434m39.765327 0l461.99459 0q39.765327 0 39.765326-39.765327l0-0.170666q0-39.765327-39.765326-39.765327l-461.99459 0q-39.765327 0-39.765327 39.765327l0 0.170666q0 39.765327 39.765327 39.765327Z"  horiz-adv-x="1024" />

    
    <glyph glyph-name="plant-1" unicode="&#59900;" d="M394.24 326.997333s-156.501333 140.970667-190.976 157.354667c-28.672 13.653333-74.581333 14.677333-86.698667-20.138667-10.410667-29.696-2.901333-63.488 61.269334-85.333333a2164.906667 2164.906667 0 0 1 216.405333-51.882667zM380.928 430.421333s53.418667 176.810667 68.266667 205.824A66.901333 66.901333 0 0 0 546.133333 666.624a65.365333 65.365333 0 0 0 17.066667-97.962667c-26.282667-36.864-182.272-138.24-182.272-138.24zM352.085333 493.568s-104.96 164.864-123.050666 195.925333-11.264 93.354667 38.229333 110.08 112.981333-15.701333 109.397333-73.898666-24.576-232.106667-24.576-232.106667zM629.418667 443.733333s-41.984 194.901333-34.133334 279.381334c2.901333 31.914667 36.352 119.466667 143.018667 96.256s86.698667-126.634667 74.752-151.722667C773.632 585.557333 629.418667 443.733333 629.418667 443.733333zM617.301333 341.333333s139.434667 93.866667 183.466667 116.565334c34.986667 18.090667 83.968 14.165333 98.133333-31.232a59.904 59.904 0 0 0-54.101333-79.701334c-37.376-4.437333-227.498667-5.632-227.498667-5.632zM475.136 587.776l-94.890667-140.288-53.418666 221.013333a12.8 12.8 0 1 1-24.917334-5.973333l75.946667-313.856-167.594667 81.749333a12.8 12.8 0 0 1-11.264-23.04L385.877333 315.733333l51.2-209.408a12.8 12.8 0 0 1 12.458667-9.728h3.072a12.8 12.8 0 0 1 9.386667 15.530667l-73.386667 301.909333 107.861333 159.573334a12.8 12.8 0 0 1-21.162666 14.336zM814.08 399.018667a12.8 12.8 0 0 1-15.872 8.704l-171.690667-50.176 74.410667 343.893333a12.8 12.8 0 0 1-25.088 5.461333l-137.898667-638.122666a12.8 12.8 0 0 1 9.898667-15.189334h2.730667a12.8 12.8 0 0 1 12.458666 10.069334l57.514667 265.557333 185.002667 54.101333a12.8 12.8 0 0 1 8.533333 15.701334zM375.466667-76.8h273.066666v-39.424a11.776 11.776 0 0 0-11.776-11.776H387.242667a11.776 11.776 0 0 0-11.776 11.776V-76.8zM358.4 247.466667h307.2a34.133333 34.133333 0 0 0 34.133333-34.133334v-238.933333a68.266667 68.266667 0 0 0-68.266666-68.266667H392.533333a68.266667 68.266667 0 0 0-68.266666 68.266667V213.333333a34.133333 34.133333 0 0 0 34.133333 34.133334z"  horiz-adv-x="1024" />

    
    <glyph glyph-name="plant-2" unicode="&#59901;" d="M692.736 442.538667s-65.877333 61.44-45.568 110.762666a68.266667 68.266667 0 0 0 119.466667 9.898667c15.872-26.965333 0-99.84 0-99.84zM374.613333 510.122667a183.808 183.808 0 0 1 4.266667 76.117333c-7.338667 36.522667-51.2 90.453333-68.266667 83.626667s-48.981333-66.389333-34.133333-121.002667a593.408 593.408 0 0 1 51.2-119.466667l30.378667 30.208zM345.941333 201.898667s-49.322667 94.890667-88.064 119.466666-100.181333 47.957333-111.616 39.765334-14.848-75.434667 36.693334-119.466667 162.986667-39.765333 162.986666-39.765333zM329.728 422.741333s10.581333 101.205333 52.906667 149.504 109.226667 63.317333 121.856 56.490667 15.530667-80.384-20.309334-134.656a435.882667 435.882667 0 0 0-89.6-94.549333zM266.581333 430.592s-26.112 48.469333-46.421333 59.733333-81.578667 11.264-90.282667-2.218666 5.12-37.546667 51.2-70.997334 81.578667-26.965333 81.578667-26.965333zM777.216 478.72s3.754667 59.050667 38.4 81.237333C858.453333 587.434667 921.6 520.533333 889.173333 473.258667a108.714667 108.714667 0 0 0-79.018666-47.104zM733.866667 381.098667s-57.685333 54.101333-34.133334 111.957333c14.165333 35.669333 104.277333 31.744 110.762667-19.797333s-31.744-92.16-31.744-92.16zM362.837333 385.536a206.677333 206.677333 0 0 0-26.965333 44.202667c-7.338667 19.626667-7.338667 50.346667-31.914667 96.938666s-72.362667 62.634667-85.333333 51.2-18.432-78.506667 17.066667-139.946666a215.893333 215.893333 0 0 1 87.210666-85.333334zM377.685333 357.717333a364.544 364.544 0 0 0 46.762667 110.250667c34.133333 49.834667 111.104 78.506667 121.685333 71.509333s20.138667-98.304-31.232-155.989333a173.909333 173.909333 0 0 0-109.226666-60.928zM317.44 291.157333s-15.872 81.066667-3.754667 115.370667 51.2 71.168 65.024 68.266667 76.117333-66.218667 44.202667-130.048-73.557333-80.213333-73.557333-80.213334zM371.882667 222.549333s-15.189333 33.28-26.282667 51.2-11.776 63.317333-36.181333 97.109334c-27.648 38.4-94.208 59.733333-110.933334 47.957333-10.581333-7.509333-18.090667-58.026667 39.765334-136.533333s133.632-59.733333 133.632-59.733334zM320.170667 215.04a248.661333 248.661333 0 0 0 99.84 145.578667c81.749333 53.930667 161.962667 45.909333 168.618666 31.061333s-23.04-138.752-109.738666-170.666667a261.973333 261.973333 0 0 0-158.72-5.973333zM752.469333 332.8s-9.728 82.261333 15.018667 113.152c31.744 39.765333 102.4 0 102.4-37.205333 0-59.733333-68.266667-91.306667-68.266667-91.306667zM834.389333 347.136A53.930667 53.930667 0 0 0 897.194667 281.6c-8.021333-32.085333-61.44-46.421333-73.557334-64.682667l-64.682666 7.338667a162.645333 162.645333 0 0 0 17.066666 72.704 92.842667 92.842667 0 0 0 58.368 50.176zM697.002667 314.197333s-72.362667 28.501333-71.338667 85.333334 53.930667 77.141333 87.722667 53.76c45.738667-31.402667 43.861333-94.378667 43.861333-94.378667zM256-76.8h512v-35.157333a16.042667 16.042667 0 0 0-16.042667-16.042667H272.042667a16.042667 16.042667 0 0 0-16.042667 16.042667V-76.8zM665.6 219.818667s-51.2 13.312-63.658667 59.221333a56.32 56.32 0 0 0 73.898667 69.290667c48.298667-17.066667 44.885333-129.194667 44.885333-129.194667zM720.213333 220.842667a121.344 121.344 0 0 0-29.184 96.426666c5.632 41.642667 84.138667 68.266667 109.738667 24.917334 31.061333-53.077333-22.357333-119.466667-22.357333-119.466667zM187.733333 230.4h648.533334a34.133333 34.133333 0 0 0 34.133333-34.133333v-187.733334a102.4 102.4 0 0 0-102.4-102.4H256a102.4 102.4 0 0 0-102.4 102.4V196.266667a34.133333 34.133333 0 0 0 34.133333 34.133333z"  horiz-adv-x="1024" />

    
    <glyph glyph-name="plant-3" unicode="&#59902;" d="M568.072747 160.01002a2349.618026 2349.618026 0 0 0 2.378844 353.258307A965.980509 965.980509 0 0 0 664.925674 859.560021s-4.58777-53.014234-7.646283-124.889301-1.189422-168.558076-3.058514-255.725711c-3.058513-154.624848-4.417853-316.726063-4.417853-316.726063zM386.091195 151.004397s-52.504481 205.090321-82.409947 388.091378a927.239338 927.239338 0 0 1-73.574241 246.210335s134.744511-139.672116 173.655599-296.335973a2545.023054 2545.023054 0 0 0 54.883325-321.823586zM499.935863 156.101919a2224.218973 2224.218973 0 0 1-2.378843 330.319457 1028.510118 1028.510118 0 0 1-78.162012 322.84309s-14.273063-152.925674-22.259181-334.567392c-6.286944-144.429803 33.133896-320.973998 33.133896-320.973999zM476.657178 174.622918s-12.743806 172.466177-10.195045 368.890709C468.840976 710.032695 528.991742 891.504495 528.991742 891.504495s53.354069-198.633459 53.354068-353.428225-21.579512-363.453352-21.579512-363.453352zM377.255489 232.904591A612.552284 612.552284 0 0 1 317.104724 415.735731C263.410821 523.123537 189.15691 557.276938 189.15691 557.276938a718.070999 718.070999 0 0 0 91.585487-166.688985A1187.043067 1187.043067 0 0 0 325.090843 230.015995zM603.925322 219.311198a1648.198933 1648.198933 0 0 0 62.869444 345.272189c32.284309 107.217889 118.942191 217.154457 118.942191 217.154457a2264.829235 2264.829235 0 0 1-49.785803-268.809352 2111.393809 2111.393809 0 0 0-67.627131-299.224569zM659.658234 239.871205a572.621691 572.621691 0 0 0 55.90283 169.917416c49.95572 101.950449 119.791778 133.385171 119.791778 133.385171a671.003875 671.003875 0 0 1-84.958708-155.984187 1109.390808 1109.390808 0 0 1-41.459849-150.037078zM658.63873-128H373.517306a53.523986 53.523986 0 0 0-53.014234 46.217537L274.115618 250.406085h483.584965l-46.047619-332.188548A53.523986 53.523986 0 0 0 658.63873-128zM743.087686 144.88737l6.796696 49.106133H282.271654l6.796696-49.106133H743.087686zM748.864878 182.609036h-465.57372a17.841329 17.841329 0 0 0-16.991741 14.273063l-7.476367 37.041997a17.841329 17.841329 0 0 0 16.991742 21.409594h480.356535a17.841329 17.841329 0 0 0 16.991741-21.409594L766.876124 197.052016a17.841329 17.841329 0 0 0-18.011246-14.44298z"  horiz-adv-x="1024" />

    
    <glyph glyph-name="plant-4" unicode="&#59909;" d="M419.840108 240.811431a8.533323 8.533323 0 0 0-7.509325 4.607995s-41.983951 79.018574-110.421205 110.250538a285.013001 285.013001 0 0 1-117.077196 29.695965 8.19199 8.19199 0 0 0-8.874657 8.191991 8.533323 8.533323 0 0 0 8.021324 8.874656 295.082322 295.082322 0 0 0 125.098521-31.231964c73.89858-34.133294 116.735864-114.5172 118.442529-117.930529a8.533323 8.533323 0 0 0-3.583996-11.434653 8.70399 8.70399 0 0 0-4.095995-1.023999zM581.802585 550.229737a8.362657 8.362657 0 0 0-3.413329 0 8.533323 8.533323 0 0 0-4.437328 11.263987C619.690541 667.136267 563.19994 770.560146 563.19994 771.584145a8.533323 8.533323 0 0 0 14.847983 8.362657c2.559997-4.437328 61.269262-111.61587 12.117319-224.597071a8.533323 8.533323 0 0 0-8.362657-5.119994zM554.154617 232.790107s19.626644 215.039749-62.122594 390.143545C415.744112 786.602794 311.466901 814.933428 249.002973 763.050822c-57.685266-47.957277-55.295935-164.693141-1.535998-278.015676a598.868635 598.868635 0 0 1 140.799836-190.634444c46.933279-42.837283 69.461252-66.218589 69.461252-66.21859zM498.346683 230.400777a12.799985 12.799985 0 0 0-12.629319 10.581321A976.382861 976.382861 0 0 1 358.400179 577.536372a12.799985 12.799985 0 0 0 21.333309 14.165316 985.940183 985.940183 0 0 0 131.071847-345.599596 12.799985 12.799985 0 0 0-10.410655-14.847983zM614.399881 243.200762a8.533323 8.533323 0 0 0-6.143993 14.506649c4.607995 4.778661 113.834534 117.41853 198.997101 130.559848a8.533323 8.533323 0 1 0 2.559997-17.066647c-79.359907-12.287986-187.733114-124.415855-189.269113-125.439853a8.533323 8.533323 0 0 0-6.143992-2.559997zM507.562672 217.600791S494.933353 374.784608 529.066647 488.107143c58.026599 192.341109 181.589121 273.066348 254.12237 233.471727s93.525224-155.477152-6.314659-301.396982c-73.557248-107.519875-180.735789-154.62382-187.733115-200.703765zM548.351958 234.667438h-3.071997a12.799985 12.799985 0 0 0-9.386656 15.530649 821.247042 821.247042 0 0 0 125.951854 265.21569 12.799985 12.799985 0 0 0 20.479976-15.530648 809.300389 809.300389 0 0 1-121.514525-255.999702 12.799985 12.799985 0 0 0-12.458652-9.215989zM645.631844-127.998805H381.781485a34.133294 34.133294 0 0 0-34.133293 31.231963l-27.135969 324.266289a34.133294 34.133294 0 0 0 34.133294 37.034623h318.292962a34.133294 34.133294 0 0 0 34.133293-37.034623l-27.135968-324.266289A34.133294 34.133294 0 0 0 645.631844-127.998805zM344.576195-59.732218h338.260939l3.925329 46.933278H340.650867l3.925328-46.933278zM336.042872 42.667662h355.327585l3.925329 46.933279H332.117543l3.925329-46.933279zM327.509549 145.067543h372.394232l3.925329 46.933278H323.58422l3.925329-46.933278zM834.218291 386.048595m-32.085296 0a32.085296 32.085296 0 1 1 64.170592 0 32.085296 32.085296 0 1 1-64.170592 0ZM568.515228 785.136264m-9.02151-30.613003a31.914629 31.914629 0 1 1 18.043019 61.226006 31.914629 31.914629 0 1 1-18.043019-61.226006ZM167.286926 395.09141m-32.047536-1.556173a32.085296 32.085296 0 1 1 64.095072 3.112346 32.085296 32.085296 0 1 1-64.095072-3.112346Z"  horiz-adv-x="1024" />

    
    <glyph glyph-name="plant-5" unicode="&#59910;" d="M631.466189 143.021679a12.799949 12.799949 0 0 0-12.799949 12.458616c0 6.826639-3.925318 167.593996 27.477223 296.276149 38.399846 157.183371 93.354293 227.327091 95.572951 230.228412a12.799949 12.799949 0 0 0 19.967921-15.871936s-53.930451-69.461055-90.794304-220.500452c-30.719877-125.439498-26.794559-287.913515-26.794559-290.132173a12.799949 12.799949 0 0 0-12.458617-13.14128zM769.263276 697.351865m-45.838196-4.712661a46.079816 46.079816 0 1 1 91.676392 9.425322 46.079816 46.079816 0 1 1-91.676392-9.425322ZM692.052613 548.865389a85.332992 85.332992 0 0 0-51.199795-10.410625 34.133197 34.133197 0 1 0 30.037213 58.026434 80.042346 80.042346 0 0 0 21.162582-47.615809zM691.199283 549.206721a85.332992 85.332992 0 0 1 20.991916-47.61581 34.133197 34.133197 0 1 1 30.037213 58.026435 80.042346 80.042346 0 0 1-51.029129-10.410625zM657.919416 430.764528s-29.183883-24.575902-53.589119-22.698576a37.37585 37.37585 0 1 0 19.96792 70.314385c22.52791-11.263955 33.621199-47.61581 33.621199-47.615809zM656.89542 430.935194s11.775953-36.181189 34.133197-47.445144a37.37585 37.37585 0 1 1 19.96792 70.314385c-25.429232 2.218658-54.101117-22.869242-54.101117-22.869241zM742.569744 659.115614a71.679713 71.679713 0 0 0-43.007828-9.215963 28.330553 28.330553 0 1 0 24.917234 49.322469 68.266394 68.266394 0 0 0 18.090594-40.106506zM741.88708 659.456946a71.679713 71.679713 0 0 1 18.090595-40.106506 28.330553 28.330553 0 1 1 25.087899 49.493135 68.266394 68.266394 0 0 1-43.178494-9.386629zM737.961763 89.261894h-1.023996a12.799949 12.799949 0 0 0-11.775953 13.653278 1250.128333 1250.128333 0 0 0 54.613115 276.64956c51.199795 144.383422 110.07956 204.799181 112.468883 207.871169a12.799949 12.799949 0 0 0 18.261261-17.066598S853.331968 509.612212 803.838833 371.202099C762.878996 256.173226 750.932378 102.57384 750.932378 101.037847a12.799949 12.799949 0 0 0-12.970615-11.775953zM920.574366 598.870522m-43.690492 0a43.690492 43.690492 0 1 1 87.380984 0 43.690492 43.690492 0 1 1-87.380984 0ZM820.393433 445.271136a80.213012 80.213012 0 0 0-48.639805-7.167971 31.573207 31.573207 0 1 0 31.231875 53.247787 75.775697 75.775697 0 0 0 17.40793-46.079816zM819.198771 445.612468a80.213012 80.213012 0 0 1 17.066599-46.079815A31.573207 31.573207 0 1 1 868.350575 452.268442a75.775697 75.775697 0 0 1-49.151804-6.655974zM777.044273 323.415624a89.770308 89.770308 0 0 0-51.199795-19.626588 35.327859 35.327859 0 1 0 21.503914 65.706403c20.650584-11.263955 29.695881-46.079816 29.695881-46.079815zM776.190943 323.58629a89.770308 89.770308 0 0 1 30.037213-46.250482 35.327859 35.327859 0 1 1 21.503914 65.706404c-23.551906 3.242654-51.541127-19.455922-51.541127-19.455922zM891.90248 565.419989a68.266394 68.266394 0 0 0-41.471834-4.607982 26.794559 26.794559 0 1 0 28.159888 44.031824 64.17041 64.17041 0 0 0 13.311946-39.423842zM891.390482 565.761321a68.266394 68.266394 0 0 1 13.141281-39.423842 26.794559 26.794559 0 1 1 28.159888 44.031824 64.17041 64.17041 0 0 1-41.301169-4.607982zM273.067622 79.363267a12.799949 12.799949 0 0 0-12.799948 11.775952 1128.27282 1128.27282 0 0 1-48.127808 244.223024c-43.690492 125.268832-95.060953 179.028617-95.572951 179.540615a12.799949 12.799949 0 0 0 18.26126 17.066598c2.218658-2.218658 55.466445-57.685103 102.399591-188.756578A1132.53947 1132.53947 0 0 0 286.720901 93.869875a12.799949 12.799949 0 0 0-11.775953-13.653279zM108.374948 542.209415m-39.423842 0a39.423842 39.423842 0 1 1 78.847684 0 39.423842 39.423842 0 1 1-78.847684 0ZM199.169251 402.945972a72.703709 72.703709 0 0 1 44.031824-6.485307 28.671885 28.671885 0 1 1-28.330553 48.298473 68.266394 68.266394 0 0 1-15.701271-41.813166zM199.851915 403.287304a72.703709 72.703709 0 0 0-15.70127-41.6425 28.671885 28.671885 0 1 0-28.330554 48.298474 68.266394 68.266394 0 0 0 44.031824-6.655974zM238.081096 314.199661a81.407674 81.407674 0 0 1 47.615809-14.677275 32.085205 32.085205 0 1 1-23.210574 58.1971 76.799693 76.799693 0 0 1-24.405235-43.519825zM238.934426 314.540993a81.407674 81.407674 0 0 0-24.575902-43.519826 32.085205 32.085205 0 1 0-23.210574 58.1971 76.799693 76.799693 0 0 0 47.786476-14.677274zM134.486843 511.83087a61.439754 61.439754 0 0 1 37.546517-4.095984 24.23457 24.23457 0 1 1-25.599898 39.935841 58.026435 58.026435 0 0 1-11.946619-35.839857zM134.998841 512.172202a61.439754 61.439754 0 0 0-11.946619-35.839857 24.23457 24.23457 0 1 0-25.599897 39.935841 58.026435 58.026435 0 0 0 37.546516-4.095984zM383.317848 196.269466a12.799949 12.799949 0 0 0-12.799949 11.946618c-12.117285 165.887336-93.183627 473.086108-94.036957 476.158096a12.799949 12.799949 0 0 0 24.746568 6.826639c0-3.071988 83.114334-312.660083 94.890287-481.107409a12.799949 12.799949 0 0 0-11.946619-13.653278zM285.070819 705.583582m-36.286233-23.402813a43.178494 43.178494 0 1 1 72.572467 46.805625 43.178494 43.178494 0 1 1-72.572467-46.805625ZM296.96086 663.723596a71.679713 71.679713 0 0 0-23.893238-36.522521 28.330553 28.330553 0 1 0-17.066598 52.735789 68.266394 68.266394 0 0 0 40.959836-16.213268zM296.278196 663.55293a71.679713 71.679713 0 0 1 40.959836-16.042603 28.330553 28.330553 0 1 1-17.066598 52.735789 68.266394 68.266394 0 0 1-23.893238-36.693186zM326.656741 532.310788a85.332992 85.332992 0 0 0-34.133196-39.594508 34.133197 34.133197 0 1 0-11.946619 64.17041 80.042346 80.042346 0 0 0 46.079815-24.575902zM325.803411 532.140122a85.332992 85.332992 0 0 1 45.738484-24.575902 34.133197 34.133197 0 1 1-11.946619 64.17041c-20.991916-8.191967-33.791865-39.594508-33.791865-39.594508zM360.789938 401.068646s-13.653279-30.037213-34.133197-37.717182a32.426537 32.426537 0 1 0-10.581291 62.293084A77.823689 77.823689 0 0 0 360.789938 401.068646zM359.936608 401.068646a82.43167 82.43167 0 0 1 44.031824-24.575901 32.426537 32.426537 0 1 1-10.581291 62.293084c-20.309252-7.338637-33.450533-37.717182-33.450533-37.717183zM509.610676 203.949435a12.799949 12.799949 0 0 0-12.799949 12.799949c0 90.452972-18.602592 411.134355-18.943924 414.377009a12.799949 12.799949 0 1 0 25.599898 1.535994c0-3.242654 18.943924-324.26537 18.943924-415.913003a12.799949 12.799949 0 0 0-12.799949-12.799949zM489.850772 663.628107m-14.239446-43.824509a46.079816 46.079816 0 1 1 28.478892 87.649018 46.079816 46.079816 0 1 1-28.478892-87.649018ZM494.933402 618.838442a71.679713 71.679713 0 0 1 37.546516-22.869242 28.330553 28.330553 0 1 1-7.167971 54.783781c-17.919928-5.973309-30.378545-31.914539-30.378545-31.914539zM494.933402 619.009108s-12.799949-25.770564-30.378546-31.914539a28.330553 28.330553 0 1 0-7.167971 54.783781 68.266394 68.266394 0 0 0 37.546517-22.869242zM496.981393 490.838954a85.332992 85.332992 0 0 1 42.154498-30.378545 34.133197 34.133197 0 1 1-3.413319 65.194406c-21.845246-5.11998-38.741178-34.815861-38.741179-34.815861zM497.834723 490.838954s-17.066598-29.183883-38.570512-34.133197A34.133197 34.133197 0 1 0 455.680225 520.534835a80.042346 80.042346 0 0 0 42.154498-29.695881zM505.685359 346.1142s23.38124-30.207879 47.615809-34.133197a37.37585 37.37585 0 1 1-4.949313 72.874375c-24.23457-5.461311-42.666496-38.741178-42.666496-38.741178zM506.538689 346.284866s-19.11459-32.938535-42.666496-39.423843a37.37585 37.37585 0 1 0-4.949314 72.874375c24.917234-3.071988 47.61581-33.450533 47.61581-33.450532zM760.489673-127.995904H263.510327a68.266394 68.266394 0 0 0-68.266393 58.197101L153.601434 213.336064h716.797132l-42.49583-283.134867A68.266394 68.266394 0 0 0 760.489673-127.995904zM856.915954 123.736422l6.826639 44.714488H160.257407l6.826639-44.714488h689.831908zM119.468237 247.469261m42.666496 0l699.730534 0q42.666496 0 42.666496-42.666496l0 0q0-42.666496-42.666496-42.666496l-699.730534 0q-42.666496 0-42.666496 42.666496l0 0q0 42.666496 42.666496 42.666496Z"  horiz-adv-x="1024" />

    
    <glyph glyph-name="plant-6" unicode="&#59914;" d="M793.428208 159.917611a12.799949 12.799949 0 0 0-12.799949 12.799949v392.531763a12.799949 12.799949 0 0 0 25.599897 0v-392.531763a12.799949 12.799949 0 0 0-12.799948-12.799949zM791.892214 512.854866a133.631465 133.631465 0 0 1-10.239959 108.543566 151.551394 151.551394 0 0 1-77.823689 73.557039 210.601824 210.601824 0 0 0-10.581291-45.05582 103.764918 103.764918 0 0 1 6.485307-91.306301c29.525215-48.469139 92.159631-45.738484 92.159632-45.738484zM652.970103 189.784158a12.799949 12.799949 0 0 0-12.799949 12.799949v204.799181a12.799949 12.799949 0 0 0 25.599898 0v-204.799181a12.799949 12.799949 0 0 0-12.799949-12.799949zM789.332224 513.708196s-24.746568 70.655717 31.914539 117.759529 69.973053 58.709098 80.213012 80.554344c0 0 47.445144-78.847685 6.314642-147.796742a111.615554 111.615554 0 0 0-118.442193-50.517131zM381.09919 211.117406a12.799949 12.799949 0 0 0-12.799949 12.799949v141.652767a12.799949 12.799949 0 0 0 25.599898 0v-141.652767a12.799949 12.799949 0 0 0-12.799949-12.799949zM382.976516 355.330163a88.40498 88.40498 0 0 1-6.826639 71.850379 100.351599 100.351599 0 0 1-51.199795 48.639805 139.434109 139.434109 0 0 0-6.997306-29.866547 68.266394 68.266394 0 0 1 3.754652-60.415758 73.898371 73.898371 0 0 1 61.269088-30.207879zM374.443217 354.988831a80.213012 80.213012 0 0 0 22.869242 85.332992c40.618504 34.133197 51.199795 42.154498 57.685102 58.026434 0 0 34.133197-56.661107 4.437316-106.324908a80.213012 80.213012 0 0 0-84.99166-37.034518zM494.933402 159.917611a12.799949 12.799949 0 0 0-12.799949 12.799949v392.531763a12.799949 12.799949 0 0 0 25.599897 0v-392.531763a12.799949 12.799949 0 0 0-12.799948-12.799949zM664.234058 377.175409a100.522265 100.522265 0 0 1-28.671886 76.970358 98.986271 98.986271 0 0 1-79.87168 30.20788s-3.071988-57.002439 31.914539-91.988966c30.378545-30.549211 76.629027-15.189273 76.629027-15.189272zM648.532787 373.762089a97.620943 97.620943 0 0 1 72.362377 46.591814 119.466189 119.466189 0 0 1 19.626589 81.237008 104.10625 104.10625 0 0 1-83.285001-37.375851 78.677019 78.677019 0 0 1-8.703965-90.452971zM224.769149 189.784158a12.799949 12.799949 0 0 0-12.799949 12.799949v307.198771a12.799949 12.799949 0 0 0 25.599898 0v-307.198771a12.799949 12.799949 0 0 0-12.799949-12.799949zM233.985112 467.287048s15.018607 45.397152-23.551906 100.522265a129.876814 129.876814 0 0 1-66.047736 45.05582c-19.797254 7.679969-34.133197 14.335943-34.133196 14.335942S96.598995 552.961372 136.534835 500.737581c34.133197-45.226486 97.450277-33.450533 97.450277-33.450533zM224.598483 465.239056a119.466189 119.466189 0 0 1 86.868986 59.562429 146.090082 146.090082 0 0 1 21.162582 100.010266s-7.167971-3.242654-42.49583-15.530604a154.964713 154.964713 0 0 1-62.975748-39.423842 82.261004 82.261004 0 0 1-2.55999-104.618249zM760.489673-127.995904H263.510327a68.266394 68.266394 0 0 0-68.266393 58.197101L153.601434 213.336064h716.797132l-42.49583-283.134867A68.266394 68.266394 0 0 0 760.489673-127.995904zM856.915954 123.736422l6.826639 44.714488H160.257407l6.826639-44.714488h689.831908zM119.468237 247.469261m42.666496 0l699.730534 0q42.666496 0 42.666496-42.666496l0 0q0-42.666496-42.666496-42.666496l-699.730534 0q-42.666496 0-42.666496 42.666496l0 0q0 42.666496 42.666496 42.666496ZM494.933402 563.030665a178.345953 178.345953 0 0 0-45.567818 102.399591A157.354037 157.354037 0 0 0 494.933402 780.288463a166.058002 166.058002 0 0 0 40.959836-101.546261c-1.194662-87.210318-40.959836-115.711537-40.959836-115.711537zM498.005389 561.665337a121.855513 121.855513 0 0 1-19.96792 119.466189C437.930963 731.477991 350.208647 725.334016 350.208647 725.334016a381.779806 381.779806 0 0 0 13.823945-42.325164c5.290646-20.309252 12.629283-57.514437 30.549211-79.871681 35.498525-43.519826 103.423586-41.471834 103.423586-41.471834zM496.469395 562.518667a125.439498 125.439498 0 0 0 23.893238 124.756835 180.564611 180.564611 0 0 0 104.447582 61.439754 134.826127 134.826127 0 0 0-15.70127-122.879509 132.266138 132.266138 0 0 0-112.63955-63.31708z"  horiz-adv-x="1024" />

    


  </font>
</defs>
</svg>
